<svg width="18" height="16" viewBox="0 0 18 16" fill="none" xmlns="http://www.w3.org/2000/svg">
<path d="M16.6832 8C17.098 7.54364 17.3295 6.95005 17.3332 6.33333C17.3332 5.67029 17.0698 5.03441 16.6009 4.56557C16.1321 4.09673 15.4962 3.83333 14.8332 3.83333H10.5165C10.6496 3.45681 10.6906 3.05388 10.636 2.65827C10.5814 2.26266 10.4329 1.88588 10.2028 1.55949C9.97264 1.23309 9.66768 0.966564 9.31341 0.782232C8.95914 0.597899 8.56586 0.501121 8.1665 0.5H3.1665C2.50346 0.5 1.86758 0.763392 1.39874 1.23223C0.929896 1.70107 0.666504 2.33696 0.666504 3C0.670179 3.61671 0.90168 4.2103 1.3165 4.66667C0.906541 5.12502 0.679894 5.71839 0.679894 6.33333C0.679894 6.94828 0.906541 7.54165 1.3165 8C0.906541 8.45835 0.679894 9.05172 0.679894 9.66667C0.679894 10.2816 0.906541 10.875 1.3165 11.3333C0.90168 11.7897 0.670179 12.3833 0.666504 13C0.666504 13.663 0.929896 14.2989 1.39874 14.7678C1.86758 15.2366 2.50346 15.5 3.1665 15.5H14.8332C15.3146 15.4974 15.7851 15.3559 16.1881 15.0924C16.591 14.8289 16.9093 14.4546 17.1047 14.0145C17.3001 13.5745 17.3643 13.0874 17.2895 12.6117C17.2147 12.1361 17.0042 11.6922 16.6832 11.3333C17.0931 10.875 17.3198 10.2816 17.3198 9.66667C17.3198 9.05172 17.0931 8.45835 16.6832 8ZM8.1665 13.8333H3.1665C2.94549 13.8333 2.73353 13.7455 2.57725 13.5893C2.42097 13.433 2.33317 13.221 2.33317 13C2.33317 12.779 2.42097 12.567 2.57725 12.4107C2.73353 12.2545 2.94549 12.1667 3.1665 12.1667H8.1665C8.38752 12.1667 8.59948 12.2545 8.75576 12.4107C8.91204 12.567 8.99984 12.779 8.99984 13C8.99984 13.221 8.91204 13.433 8.75576 13.5893C8.59948 13.7455 8.38752 13.8333 8.1665 13.8333ZM8.1665 10.5H3.1665C2.94549 10.5 2.73353 10.4122 2.57725 10.2559C2.42097 10.0996 2.33317 9.88768 2.33317 9.66667C2.33317 9.44565 2.42097 9.23369 2.57725 9.07741C2.73353 8.92113 2.94549 8.83333 3.1665 8.83333H8.1665C8.38752 8.83333 8.59948 8.92113 8.75576 9.07741C8.91204 9.23369 8.99984 9.44565 8.99984 9.66667C8.99984 9.88768 8.91204 10.0996 8.75576 10.2559C8.59948 10.4122 8.38752 10.5 8.1665 10.5ZM8.1665 7.16667H3.1665C2.94549 7.16667 2.73353 7.07887 2.57725 6.92259C2.42097 6.76631 2.33317 6.55435 2.33317 6.33333C2.33317 6.11232 2.42097 5.90036 2.57725 5.74408C2.73353 5.5878 2.94549 5.5 3.1665 5.5H8.1665C8.38752 5.5 8.59948 5.5878 8.75576 5.74408C8.91204 5.90036 8.99984 6.11232 8.99984 6.33333C8.99984 6.55435 8.91204 6.76631 8.75576 6.92259C8.59948 7.07887 8.38752 7.16667 8.1665 7.16667ZM8.1665 3.83333H3.1665C2.94549 3.83333 2.73353 3.74554 2.57725 3.58926C2.42097 3.43298 2.33317 3.22101 2.33317 3C2.33317 2.77899 2.42097 2.56702 2.57725 2.41074C2.73353 2.25446 2.94549 2.16667 3.1665 2.16667H8.1665C8.38752 2.16667 8.59948 2.25446 8.75576 2.41074C8.91204 2.56702 8.99984 2.77899 8.99984 3C8.99984 3.22101 8.91204 3.43298 8.75576 3.58926C8.59948 3.74554 8.38752 3.83333 8.1665 3.83333ZM15.4082 13.5917C15.3343 13.6696 15.245 13.7313 15.1461 13.7729C15.0471 13.8145 14.9405 13.8351 14.8332 13.8333H10.5165C10.7163 13.2957 10.7163 12.7043 10.5165 12.1667H14.8332C15.0542 12.1667 15.2661 12.2545 15.4224 12.4107C15.5787 12.567 15.6665 12.779 15.6665 13C15.665 13.1108 15.6413 13.2203 15.597 13.3219C15.5526 13.4235 15.4884 13.5152 15.4082 13.5917ZM15.4082 10.2583C15.3343 10.3362 15.245 10.398 15.1461 10.4396C15.0471 10.4812 14.9405 10.5017 14.8332 10.5H10.5165C10.7163 9.96241 10.7163 9.37092 10.5165 8.83333H14.8332C15.0542 8.83333 15.2661 8.92113 15.4224 9.07741C15.5787 9.23369 15.6665 9.44565 15.6665 9.66667C15.665 9.77751 15.6413 9.88694 15.597 9.98853C15.5526 10.0901 15.4884 10.1819 15.4082 10.2583ZM15.4082 6.925C15.3343 7.00291 15.245 7.06463 15.1461 7.10623C15.0471 7.14783 14.9405 7.16841 14.8332 7.16667H10.5165C10.7163 6.62908 10.7163 6.03759 10.5165 5.5H14.8332C15.0542 5.5 15.2661 5.5878 15.4224 5.74408C15.5787 5.90036 15.6665 6.11232 15.6665 6.33333C15.665 6.44418 15.6413 6.5536 15.597 6.6552C15.5526 6.7568 15.4884 6.84852 15.4082 6.925Z" fill="#57585B"/>
</svg>
