<svg width="227" height="58" viewBox="0 0 227 58" fill="none" xmlns="http://www.w3.org/2000/svg">
<g clip-path="url(#clip0_1599_2302)">
<path d="M58.0123 10.9222C57.9814 10.1866 57.8814 9.45555 57.7138 8.73887C57.1435 6.29622 55.777 4.11549 53.8317 2.54369C51.9185 0.953394 49.5271 0.0590678 47.0451 0.00559041H11.7545C10.8444 -0.0217837 9.93403 0.0514327 9.03982 0.223922C6.91442 0.692063 4.97098 1.77329 3.44762 3.33515C2.33868 4.41338 1.48512 5.72853 0.950132 7.18325C0.496291 8.25614 0.238795 9.40255 0.190027 10.5674H0V47.5746H0.190027C0.229507 48.7202 0.477948 49.8488 0.922985 50.9042C1.93527 53.5096 3.86862 55.6476 6.35231 56.9083C7.38215 57.4463 8.49115 57.815 9.63705 58C9.67419 57.9784 9.71632 57.9671 9.75921 57.9671C9.8021 57.9671 9.84423 57.9784 9.88137 58H48.1581H48.3481H49.0268C51.0685 57.5631 52.9503 56.5672 54.4642 55.1223C55.9782 53.6774 57.0651 51.8397 57.6051 49.8126C57.9007 48.7005 58.0377 47.5519 58.0123 46.4012V10.9222ZM45.0905 39.0324C45.0466 39.1465 45.0466 39.2731 45.0905 39.3872C45.0238 39.8244 44.9147 40.254 44.7647 40.6699L44.2762 42.553L44.1404 42.9623C44.1404 43.3718 43.8147 43.6993 43.326 43.7538H43.136C43.0629 43.7987 42.9818 43.8286 42.8972 43.8419C42.8127 43.8552 42.7262 43.8516 42.643 43.8313C42.5598 43.811 42.4815 43.7745 42.4124 43.7238C42.3432 43.673 42.2847 43.609 42.2401 43.5355C41.9908 43.2156 41.8295 42.8354 41.7724 42.433C41.7152 42.0307 41.7642 41.6203 41.9143 41.243L42.0773 40.861C42.1179 40.6813 42.1179 40.4948 42.0773 40.3151C41.9428 39.9263 41.9428 39.5031 42.0773 39.1143C42.1224 38.9995 42.1919 38.8961 42.2811 38.8113C42.3702 38.7264 42.4767 38.6621 42.593 38.623L43.2717 38.3228C43.3653 38.2888 43.4502 38.2345 43.5206 38.1638C43.591 38.093 43.6451 38.0075 43.6789 37.9134C43.8418 37.5587 44.1132 37.2858 44.3033 36.9309C44.4933 36.5762 44.4662 36.5762 44.6833 36.5762C44.9005 36.5762 45.0091 36.7945 45.1177 36.9856C45.158 37.1375 45.158 37.2975 45.1177 37.4496V37.9953C45.2269 38.3339 45.2174 38.7 45.0905 39.0324ZM45.8507 25.0046C45.7458 25.3658 45.6001 25.7138 45.4162 26.0417C45.1177 26.6148 44.7647 27.1606 44.4662 27.7337C44.1554 28.2597 43.7394 28.715 43.2445 29.071C42.298 29.7723 41.4411 30.5882 40.6928 31.4999C40.3106 31.9902 39.9829 32.5209 39.7155 33.0829C39.675 33.1534 39.6537 33.2334 39.6537 33.3148C39.6537 33.3963 39.675 33.4763 39.7155 33.5469C39.8444 33.9186 39.9353 34.3027 39.987 34.693C40.0191 34.9636 40.1438 35.2145 40.3399 35.4026C40.4165 35.4917 40.4732 35.5962 40.506 35.7093C40.5387 35.8223 40.5469 35.9412 40.5299 36.0577C40.4756 36.5565 40.4756 37.0598 40.5299 37.5587C40.5516 37.9555 40.4441 38.3487 40.2237 38.6786C40.0033 39.0086 39.6819 39.2573 39.3083 39.3872C38.9042 39.4894 38.5545 39.7433 38.3311 40.0968C38.3311 40.2332 38.1139 40.2606 38.0052 40.3424C37.8563 40.4186 37.7391 40.5455 37.6745 40.7003C37.6099 40.8553 37.602 41.0283 37.6524 41.1885C37.6524 41.3795 37.6524 41.5978 37.7881 41.8161C37.8963 42.2645 37.8963 42.7323 37.7881 43.1808C37.7619 43.2862 37.7076 43.3826 37.6311 43.4595C37.5546 43.5364 37.4587 43.5909 37.3537 43.6174C37.1811 43.6521 37.0157 43.7168 36.8651 43.8084C36.7792 43.8336 36.7047 43.8885 36.6551 43.9633C36.6054 44.0382 36.5836 44.1284 36.5937 44.2178C36.594 44.8719 36.3739 45.5068 35.9692 46.0191C35.4736 46.738 34.9294 47.422 34.3405 48.0659C34.0742 48.3712 33.7435 48.6129 33.3725 48.7735C33.0014 48.934 32.5995 49.0093 32.1959 48.9938C31.8259 48.9555 31.4529 48.9555 31.0829 48.9938L30.3499 49.1303C30.1608 49.1567 29.969 49.1567 29.7799 49.1303C29.6551 49.1339 29.5307 49.1128 29.4141 49.0681C29.2974 49.0235 29.1907 48.9561 29.0999 48.8699C29.0092 48.7837 28.9362 48.6804 28.8852 48.5658C28.8342 48.4513 28.8061 48.3278 28.8026 48.2024C28.7894 48.1394 28.7894 48.0743 28.8026 48.0114C28.8407 47.6163 28.7654 47.2184 28.5854 46.865C28.3214 46.2303 27.9745 45.6338 27.5538 45.0912C27.3719 44.8717 27.2503 44.6083 27.2009 44.327L26.9567 42.7168C26.7686 42.0753 26.465 41.4739 26.0607 40.9428L25.6535 40.2878C25.5502 40.1028 25.4854 39.8984 25.4635 39.6874C25.3492 38.7519 25.5096 37.8032 25.925 36.9583L26.2508 36.467C26.3375 36.3279 26.3835 36.1672 26.3835 36.003C26.3835 35.8389 26.3375 35.6781 26.2508 35.5392C26.146 35.2211 26.0822 34.8909 26.0607 34.5566C25.9282 33.9747 25.7372 33.4076 25.4907 32.8645C25.2872 32.5488 25.0507 32.256 24.7848 31.9912L24.432 31.6637C24.254 31.4969 24.1284 31.2815 24.0704 31.0439C24.0126 30.8064 24.025 30.5569 24.1062 30.3265C24.1062 29.9989 24.2691 29.6714 24.3233 29.3439C24.3367 29.1713 24.3367 28.998 24.3233 28.8254C24.3247 28.6794 24.2731 28.5379 24.1781 28.4273C24.0832 28.3169 23.9515 28.2448 23.8076 28.225H22.8031C22.6963 28.2356 22.5886 28.2155 22.4926 28.1672C22.3965 28.119 22.3159 28.0444 22.2602 27.9521C22.1869 27.849 22.1233 27.7394 22.0702 27.6246C21.996 27.4878 21.8773 27.3808 21.734 27.3211C21.5908 27.2616 21.4317 27.253 21.2829 27.2971C20.9415 27.3183 20.6041 27.3825 20.2785 27.4882L19.4099 27.761C19.0665 27.9052 18.6956 27.9705 18.324 27.9521H17.6182C17.1681 27.9055 16.7135 27.9616 16.288 28.1158C16.1874 28.1684 16.0756 28.1959 15.9622 28.1959C15.8487 28.1959 15.7371 28.1684 15.6365 28.1158C14.8256 27.7088 14.0611 27.2148 13.3561 26.6421C13.1305 26.4612 12.9533 26.2268 12.8404 25.9598C12.7155 25.7152 12.5503 25.4938 12.3517 25.3048C12.0531 25.0046 11.7816 24.7044 11.483 24.4315C11.3159 24.3344 11.1729 24.2004 11.0647 24.0396C10.9566 23.8789 10.8861 23.6957 10.8586 23.5036C10.8573 23.39 10.8324 23.2781 10.7857 23.1747C10.739 23.0712 10.6714 22.9788 10.5872 22.9032C10.5641 22.8826 10.5456 22.8575 10.5329 22.8293C10.5202 22.801 10.5137 22.7703 10.5137 22.7394C10.5137 22.7084 10.5202 22.6778 10.5329 22.6496C10.5456 22.6214 10.5641 22.5961 10.5872 22.5757L10.8586 22.3027C11.1186 21.7832 11.2754 21.2178 11.3201 20.6379C11.3739 20.2659 11.3172 19.8861 11.1573 19.5463C11.0764 19.4002 11.034 19.2358 11.034 19.0687C11.034 18.9015 11.0764 18.7371 11.1573 18.5911C11.4671 18.0466 11.7392 17.4812 11.9717 16.899C11.9999 16.7151 12.0645 16.5388 12.1617 16.3805C12.3789 16.0803 12.6232 15.8073 12.8674 15.5071C12.9329 15.4277 13.0056 15.3546 13.0846 15.2888L14.0348 14.6065C14.194 14.5175 14.3259 14.3867 14.4168 14.2281C14.5076 14.0694 14.5539 13.8889 14.5506 13.7059C14.5241 13.5341 14.5241 13.3593 14.5506 13.1873C14.6871 12.6952 14.9833 12.2629 15.3921 11.9593L15.8536 11.5772C16.0328 11.4367 16.1807 11.26 16.288 11.0586C16.3151 10.9512 16.3609 10.8495 16.4237 10.7584C16.4543 10.7236 16.4918 10.6957 16.534 10.6766C16.5761 10.6574 16.6218 10.6476 16.668 10.6476C16.7142 10.6476 16.76 10.6574 16.802 10.6766C16.8442 10.6957 16.8818 10.7236 16.9123 10.7584C17.3494 10.9426 17.8292 10.9993 18.2968 10.9222C18.5447 10.9219 18.7881 10.856 19.0027 10.7311C19.9161 10.2159 20.9416 9.93474 21.9888 9.9124H22.3688C22.6468 9.85793 22.9324 9.85793 23.2103 9.9124C23.6276 9.91699 24.0419 9.84294 24.432 9.69407C24.5259 9.62321 24.6402 9.58491 24.7577 9.58491C24.8752 9.58491 24.9895 9.62321 25.0835 9.69407C25.0835 9.69407 25.4363 9.69407 25.4907 9.9124C25.545 10.1307 25.4907 10.158 25.3278 10.2945C25.2987 10.3831 25.2987 10.4788 25.3278 10.5674C25.3832 10.637 25.4231 10.7177 25.4451 10.8041C25.467 10.8905 25.4703 10.9806 25.4549 11.0683C25.4396 11.1561 25.4057 11.2396 25.3557 11.3132C25.3057 11.3869 25.2407 11.4489 25.165 11.4953C25.156 11.5587 25.156 11.623 25.165 11.6863C25.165 11.6863 25.165 11.6863 25.165 11.8228H25.3278C25.6632 11.9946 26.0189 12.123 26.3865 12.2049L27.228 12.3686C27.3355 12.3842 27.4372 12.4275 27.5228 12.4945C27.6085 12.5615 27.6753 12.6498 27.7167 12.7507C27.7567 12.8397 27.8167 12.9182 27.8921 12.9798C27.9676 13.0414 28.0562 13.0845 28.151 13.1054L29.1826 13.5149C29.2724 13.5307 29.3642 13.5307 29.4541 13.5149C29.6169 13.5149 29.6984 13.5149 29.7799 13.2965C29.8061 13.143 29.8061 12.9861 29.7799 12.8326C29.7849 12.7037 29.8294 12.5796 29.9071 12.4772C29.9847 12.3746 30.092 12.2986 30.2142 12.2595H30.6756C30.8145 12.2257 30.9597 12.228 31.0974 12.2662C31.2352 12.3044 31.3609 12.3772 31.4629 12.4778C31.6228 12.6222 31.8208 12.717 32.033 12.7507L33.9875 13.242C34.2924 13.3649 34.6328 13.3649 34.9377 13.242C35.2546 13.1339 35.5981 13.1339 35.915 13.242H36.9194C37.1909 13.242 37.3809 13.242 37.408 13.6241C37.4352 14.0061 37.408 13.9516 37.408 14.088C37.5425 14.4862 37.5425 14.9179 37.408 15.3161C37.3592 15.3929 37.2944 15.458 37.218 15.5071C37.0822 15.5071 37.0822 15.6709 37.218 15.8073C37.3537 15.9439 37.4352 16.3805 37.5709 16.6534C37.8113 17.0041 37.9945 17.391 38.1139 17.7996C38.1722 17.9551 38.2651 18.0951 38.3854 18.209C38.7672 18.5925 38.9821 19.1127 38.9826 19.6555C38.9789 19.807 39.0059 19.9577 39.0619 20.0985C39.1179 20.2392 39.2016 20.367 39.3083 20.4742C39.6166 20.7591 39.8338 21.1295 39.9326 21.5385C40.0421 21.86 40.2515 22.1374 40.5299 22.33C40.9643 22.6848 41.3443 23.0942 41.7515 23.4763C41.917 23.6394 42.0304 23.8484 42.0773 24.0767C42.0773 24.5134 42.3758 24.6771 42.8373 24.5952C43.2086 24.6059 43.5801 24.5969 43.9504 24.5679C44.4265 24.5178 44.8929 24.3982 45.3349 24.2131H45.4977C45.5316 24.2006 45.5676 24.1957 45.6036 24.1989C45.6396 24.202 45.6744 24.2131 45.7055 24.2314C45.7366 24.2497 45.7633 24.2746 45.7837 24.3046C45.8041 24.3344 45.8177 24.3684 45.8235 24.4042C45.8855 24.5984 45.8949 24.8056 45.8507 25.0046Z" fill="#264ECA"/>
<path d="M227 4.07267C226.803 3.58503 226.48 3.15882 226.065 2.83757C225.649 2.51632 225.157 2.31154 224.638 2.24414C224.609 2.25862 224.577 2.26615 224.543 2.26615C224.51 2.26615 224.478 2.25862 224.449 2.24414H224.123C224.093 2.25862 224.06 2.26615 224.027 2.26615C223.995 2.26615 223.963 2.25862 223.933 2.24414C223.436 2.31139 222.968 2.51521 222.581 2.83308C222.193 3.15096 221.899 3.57052 221.734 4.04538L220.241 7.81161L218.096 13.0515C217.309 14.9892 216.521 16.927 215.762 18.8647L213.047 25.2235L210.332 31.6643C210.332 31.6643 210.332 31.8281 210.142 31.8281C210.026 31.6082 209.927 31.3802 209.844 31.1458C208.757 28.4167 207.699 25.6875 206.64 23.1495C205.581 20.6113 204.712 17.8549 203.599 15.2349C203.437 14.7955 203.247 14.367 203.03 13.9522C202.855 13.5832 202.593 13.2631 202.266 13.0203C201.94 12.7776 201.559 12.6196 201.157 12.5603C200.432 12.4648 199.698 12.6396 199.093 13.0515C198.843 13.1898 198.628 13.3863 198.469 13.6247C198.179 14.0154 197.998 14.4772 197.945 14.962C197.893 15.4467 197.97 15.9368 198.17 16.3811C198.442 17.118 198.74 17.8549 199.039 18.5917L202.134 26.2607C202.921 28.2529 203.735 30.2452 204.55 32.2647C205.581 34.8575 206.613 37.4229 207.672 40.0155C207.816 40.4241 208.017 40.81 208.268 41.1618C208.672 41.6815 209.249 42.0369 209.893 42.1623C210.536 42.2877 211.203 42.1747 211.77 41.8441C212.373 41.4751 212.84 40.9196 213.101 40.2612C214.241 37.3955 215.381 34.5573 216.549 31.6917C217.716 28.826 218.856 25.8786 220.023 22.9857L222.467 16.9815C223.064 15.426 223.688 13.8977 224.313 12.3692L226.593 6.63807L227 5.601V4.09997V4.07267Z" fill="#264ECA"/>
<path d="M121.242 35.8165C120.564 34.3428 119.912 32.8963 119.234 31.4499C118.283 29.403 117.334 27.3561 116.519 25.3093C115.704 23.2624 114.727 21.4611 113.804 19.5235L111.09 13.4102C110.302 11.6636 109.488 9.91691 108.674 8.17025L107.696 6.06881C107.398 5.41381 107.126 4.73152 106.8 4.10381C106.623 3.6567 106.331 3.26468 105.955 2.96751C105.578 2.67034 105.13 2.47861 104.656 2.41174H104.466H103.814C103.78 2.42857 103.743 2.43733 103.706 2.43733C103.668 2.43733 103.631 2.42857 103.597 2.41174C103.428 2.44454 103.269 2.51961 103.136 2.63008H102.946C102.424 2.92135 102.006 3.37002 101.751 3.91277L100.475 6.64193L96.9462 14.0106C95.8603 16.3577 94.8015 18.7048 93.7157 21.0245C92.6298 23.3443 91.6526 25.473 90.6481 27.711C90.4215 28.1531 90.222 28.6088 90.0509 29.0755C89.8653 29.5423 89.8282 30.0555 89.9449 30.5443C90.0616 31.0331 90.3263 31.4735 90.7024 31.8046C90.9922 32.0873 91.3374 32.3061 91.7161 32.447C92.0946 32.588 92.4984 32.6481 92.9013 32.6234C93.5187 32.612 94.1095 32.3686 94.5573 31.9412C94.874 31.6159 95.1313 31.2372 95.3173 30.8222L96.9462 27.1924L100.177 20.1785L102.891 13.9561L103.271 13.2465C103.57 12.8644 103.651 12.3731 103.923 11.9638C103.968 11.9763 104.01 12.0005 104.043 12.0339C104.076 12.0675 104.1 12.1091 104.113 12.1548L104.547 13.0827L107.615 19.7145L109.569 23.972L112.99 31.368C113.777 33.142 114.591 34.8614 115.406 36.6352L116.221 38.4365C116.573 39.2007 116.899 39.9648 117.279 40.7017C117.5 41.2309 117.881 41.6766 118.368 41.9755C118.856 42.2743 119.425 42.4112 119.993 42.3664C120.55 42.3343 121.082 42.1311 121.519 41.7845C121.955 41.438 122.276 40.9646 122.437 40.4288C122.638 39.6902 122.56 38.903 122.219 38.2182C121.975 37.3994 121.622 36.608 121.242 35.8165Z" fill="#264ECA"/>
<path d="M188.832 28.471C188.483 26.9927 187.73 25.6414 186.661 24.5683C185.786 23.6862 184.778 22.9493 183.674 22.3849C182.731 21.9055 181.751 21.5039 180.743 21.1841C179.412 20.6928 178.028 20.3381 176.67 19.9833C174.996 19.5914 173.346 19.0993 171.729 18.5096C170.957 18.2122 170.212 17.8469 169.503 17.4179C168.855 17.035 168.32 16.483 167.957 15.8201C167.594 15.1572 167.415 14.4081 167.441 13.6516C167.459 13.172 167.533 12.6959 167.657 12.2325C167.934 11.1032 168.634 10.1252 169.613 9.50337C170.45 8.97856 171.368 8.59161 172.327 8.35713C173.487 8.04767 174.684 7.90072 175.883 7.92047C176.604 7.92047 177.294 7.63293 177.803 7.12112C178.311 6.6093 178.598 5.91513 178.598 5.19132C178.604 4.52908 178.371 3.88707 177.941 3.38495C177.512 2.88282 176.916 2.55486 176.264 2.46217H175.611C173.987 2.3156 172.351 2.40754 170.752 2.73509C168.424 3.31156 166.304 4.54203 164.644 6.28298C163.023 7.993 162.061 10.2282 161.929 12.5873C161.843 13.6916 161.907 14.8027 162.119 15.8896C162.327 17.038 162.76 18.1331 163.396 19.11C164.237 20.3712 165.35 21.4253 166.654 22.1939C167.883 22.9423 169.196 23.5467 170.562 23.9951C172.436 24.6229 174.39 25.0868 176.29 25.6327C177.545 25.9411 178.779 26.3332 179.982 26.8061C180.796 27.1301 181.563 27.5614 182.262 28.0889C182.84 28.5591 183.257 29.1982 183.457 29.9174C183.701 30.9707 183.592 32.075 183.151 33.061C182.71 34.0469 181.959 34.8601 181.013 35.3758C179.53 36.1933 177.873 36.6425 176.182 36.6857C175.487 36.7533 174.786 36.7533 174.092 36.6857C173.259 36.586 172.433 36.431 171.621 36.2217C170.376 35.8877 169.199 35.3332 168.146 34.5843C167.648 34.2191 167.185 33.8079 166.762 33.3561C166.464 33.0127 166.046 32.7977 165.595 32.7557C164.956 32.6271 164.295 32.6936 163.695 32.9467C163.34 33.0862 163.023 33.3067 162.768 33.591C162.513 33.8753 162.329 34.2154 162.229 34.5843C162.088 35.0607 162.079 35.5666 162.204 36.0475C162.328 36.5286 162.58 36.9662 162.934 37.3134C163.984 38.4121 165.203 39.3336 166.544 40.0426C168.089 40.857 169.745 41.4364 171.459 41.7619C172.671 42.0252 173.91 42.1534 175.151 42.144H175.367C176.531 42.1524 177.694 42.0611 178.843 41.8711C180.693 41.5131 182.466 40.8294 184.082 39.8515C185.521 38.9569 186.721 37.7197 187.573 36.2489C188.425 34.7782 188.904 33.1193 188.968 31.4184V30.3541C188.985 29.7234 188.94 29.0925 188.832 28.471Z" fill="#264ECA"/>
<path d="M150.067 25.7147C151.378 24.8919 152.506 23.8046 153.378 22.5215C154.339 21.0147 154.943 19.3059 155.142 17.5273C155.238 16.5379 155.238 15.5417 155.142 14.5525C155.118 13.6347 155.009 12.7211 154.817 11.8233C154.493 10.4188 153.912 9.08658 153.106 7.89336C152.259 6.65865 151.181 5.60187 149.931 4.78212C147.553 3.06511 144.713 2.11351 141.786 2.05298C141.352 2.05298 140.891 2.05298 140.457 2.05298C139.381 2.15546 138.319 2.35643 137.281 2.65338C134.646 3.3672 132.301 4.89456 130.575 7.02003C129.913 7.85757 129.357 8.77426 128.919 9.74917C128.215 11.4785 127.891 13.3405 127.969 15.2075C127.975 15.6401 128.083 16.065 128.285 16.4472C128.487 16.8294 128.775 17.1581 129.127 17.4059C129.48 17.654 129.887 17.814 130.313 17.873C130.739 17.932 131.174 17.8884 131.579 17.7456C132.016 17.6107 132.411 17.3674 132.729 17.0382C133.047 16.7091 133.277 16.3048 133.399 15.8625C133.438 15.4723 133.438 15.0791 133.399 14.6889C133.409 13.5631 133.668 12.4537 134.158 11.4413C134.634 10.5317 135.336 9.76092 136.194 9.20335C136.796 8.80845 137.432 8.4704 138.094 8.19355C139.103 7.80978 140.166 7.59764 141.244 7.56586C141.983 7.56652 142.721 7.64889 143.442 7.81147C144.662 8.09136 145.82 8.59063 146.863 9.28522C147.71 9.87896 148.385 10.6891 148.818 11.6323C149.274 12.6361 149.523 13.7223 149.55 14.8254C149.652 15.905 149.57 16.9941 149.306 18.0458C149.021 19.1564 148.346 20.1258 147.406 20.7749C146.083 21.643 144.637 22.3054 143.117 22.74C141.84 23.1493 140.402 23.5041 139.289 23.9408C137.691 24.4444 136.153 25.1216 134.701 25.9604C132.87 27.0291 131.32 28.5235 130.182 30.3185C129.044 32.1134 128.351 34.1565 128.159 36.2765C128.159 36.7677 128.159 37.259 128.023 37.7775C127.969 38.3858 127.969 38.9977 128.023 39.606C128.023 40.3299 128.309 41.024 128.818 41.5359C129.328 42.0477 130.018 42.3352 130.738 42.3352C131.26 42.3341 131.771 42.1816 132.21 41.896C132.648 41.6104 132.994 41.2038 133.209 40.725C133.309 40.47 133.382 40.2046 133.425 39.9336C133.453 39.4154 133.453 38.8961 133.425 38.3779C133.443 37.3518 133.597 36.3327 133.887 35.3486C134.217 34.1615 134.832 33.0742 135.679 32.1827C136.364 31.4873 137.163 30.915 138.04 30.4908C139.361 29.8505 140.732 29.3211 142.14 28.9078C143.442 28.4712 144.854 28.1163 146.076 27.6523C147.469 27.1488 148.807 26.4993 150.067 25.7147Z" fill="#264ECA"/>
<path d="M185.955 11.7135C186.675 11.7135 187.365 11.4259 187.874 10.9141C188.384 10.4023 188.669 9.7081 188.669 8.98428C188.669 8.26047 188.384 7.5663 187.874 7.05448C187.365 6.54267 186.675 6.25513 185.955 6.25513C185.236 6.25513 184.544 6.54267 184.035 7.05448C183.527 7.5663 183.24 8.26047 183.24 8.98428C183.24 9.7081 183.527 10.4023 184.035 10.9141C184.544 11.4259 185.236 11.7135 185.955 11.7135Z" fill="#264ECA"/>
<path d="M196.514 7.78423C197.234 7.78423 197.924 7.49669 198.434 6.98488C198.943 6.47306 199.229 5.77889 199.229 5.05508C199.229 4.51531 199.07 3.98766 198.771 3.53884C198.473 3.09004 198.049 2.74024 197.553 2.53368C197.057 2.32712 196.512 2.27306 195.985 2.37837C195.458 2.48367 194.975 2.7436 194.595 3.12528C194.215 3.50695 193.957 3.99325 193.852 4.52265C193.747 5.05205 193.802 5.60079 194.007 6.09948C194.212 6.59817 194.56 7.0244 195.007 7.32428C195.453 7.62417 195.977 7.78423 196.514 7.78423Z" fill="#264ECA"/>
<path d="M152.536 36.6304C151.817 36.6304 151.125 36.9179 150.617 37.4297C150.108 37.9415 149.821 38.6357 149.821 39.3595C149.821 40.0833 150.108 40.7775 150.617 41.2893C151.125 41.8011 151.817 42.0886 152.536 42.0886C153.256 42.0886 153.946 41.8011 154.456 41.2893C154.965 40.7775 155.251 40.0833 155.251 39.3595C155.251 38.6357 154.965 37.9415 154.456 37.4297C153.946 36.9179 153.256 36.6304 152.536 36.6304Z" fill="#264ECA"/>
<path d="M88.0626 42.1447C88.7825 42.1447 89.473 41.8572 89.982 41.3454C90.4911 40.8335 90.7771 40.1394 90.7771 39.4155C90.7771 38.6918 90.4911 37.9975 89.982 37.4858C89.473 36.974 88.7825 36.6864 88.0626 36.6864C87.3425 36.6864 86.6521 36.974 86.143 37.4858C85.6339 37.9975 85.3479 38.6918 85.3479 39.4155C85.3479 40.1394 85.6339 40.8335 86.143 41.3454C86.6521 41.8572 87.3425 42.1447 88.0626 42.1447Z" fill="#264ECA"/>
<path d="M136.765 48.3399H136.059C135.18 48.5144 134.392 48.9972 133.835 49.7021C133.279 50.407 132.989 51.2883 133.018 52.1881C133.002 52.6914 133.088 53.1929 133.269 53.6621C133.451 54.1312 133.726 54.5583 134.077 54.9172C134.417 55.2979 134.838 55.5981 135.307 55.7963C135.776 55.9945 136.284 56.0857 136.792 56.0634C137.311 56.0827 137.827 55.9791 138.298 55.761C138.77 55.5429 139.184 55.2165 139.507 54.8081C140.046 54.1965 140.38 53.4303 140.463 52.6175C140.546 51.8047 140.372 50.9863 139.968 50.2777C139.671 49.6834 139.212 49.186 138.645 48.8431C138.078 48.5002 137.427 48.3258 136.765 48.3399ZM137.363 55.1083H137.172H136.576C136.051 55.0973 135.542 54.9342 135.109 54.6388C134.675 54.3434 134.336 53.9283 134.132 53.4434C133.898 52.9778 133.787 52.4593 133.811 51.9381C133.834 51.4169 133.992 50.9108 134.268 50.4686C134.505 50.0204 134.862 49.6476 135.298 49.392C135.734 49.1365 136.233 49.0084 136.738 49.0222C137.132 49.0361 137.518 49.1361 137.87 49.3152C138.221 49.4943 138.53 49.7483 138.774 50.0593C139.101 50.4494 139.328 50.9144 139.436 51.4134C139.542 51.9125 139.524 52.4303 139.385 52.9211C139.245 53.4119 138.988 53.8606 138.635 54.2277C138.282 54.5949 137.845 54.8692 137.363 55.0264V55.1083Z" fill="#264ECA"/>
<path d="M174.308 48.3383C174.048 48.2964 173.782 48.2964 173.521 48.3383C172.779 48.5162 172.114 48.9273 171.621 49.5117C171.291 49.8805 171.036 50.3117 170.873 50.7803C170.71 51.2488 170.641 51.7453 170.671 52.2409C170.718 53.0901 171.031 53.9025 171.567 54.5606C172.004 55.1019 172.589 55.5019 173.251 55.7106C173.912 55.9192 174.619 55.9275 175.286 55.7342C176.085 55.4954 176.777 54.9838 177.241 54.2878C177.716 53.6012 177.954 52.7767 177.918 51.9407C177.898 51.1427 177.633 50.3707 177.159 49.7301C176.826 49.2891 176.394 48.9334 175.9 48.6915C175.404 48.4497 174.859 48.3287 174.308 48.3383ZM176.236 54.3423C175.918 54.6768 175.522 54.9245 175.083 55.0627C174.645 55.2007 174.178 55.2245 173.728 55.1317C173.277 55.039 172.858 54.8328 172.509 54.5325C172.158 54.232 171.891 53.8474 171.73 53.4145C171.406 52.6875 171.372 51.8634 171.635 51.112C171.897 50.3605 172.436 49.739 173.141 49.3753C173.572 49.1546 174.057 49.0629 174.539 49.1114C175.019 49.1598 175.477 49.3461 175.856 49.6483C176.213 49.914 176.509 50.2539 176.724 50.645C176.938 51.0359 177.067 51.4688 177.1 51.9141C177.134 52.3596 177.072 52.8068 176.917 53.2258C176.764 53.6448 176.522 54.0257 176.209 54.3423H176.236Z" fill="#264ECA"/>
<path d="M102.261 53.2784C101.962 52.7599 102.017 52.7326 102.451 52.5416C102.859 52.3097 103.18 51.948 103.361 51.5132C103.543 51.0786 103.576 50.5955 103.455 50.1399C103.352 49.68 103.098 49.2684 102.733 48.9713C102.369 48.6744 101.916 48.5092 101.447 48.5024C101.012 48.5024 100.551 48.5024 100.116 48.5024H99.2476C98.9491 48.5024 98.9219 48.5024 98.9219 48.8573V55.4072C98.9219 55.8711 98.9219 55.8711 99.4106 55.8711C99.8992 55.8711 99.7363 55.8711 99.7363 55.5709V53.7151C99.7363 52.6781 99.6006 52.8418 100.659 52.8418C100.759 52.8273 100.861 52.8461 100.949 52.8954C101.038 52.9447 101.107 53.0217 101.148 53.1147L101.664 53.9881L102.587 55.6255C102.587 55.6255 102.587 55.8438 102.858 55.8711C103.083 55.8996 103.311 55.8996 103.537 55.8711C103.57 55.7833 103.57 55.6861 103.537 55.5983L102.261 53.2784ZM101.582 52.023H100.035C99.8178 52.023 99.7635 52.023 99.7635 51.7501V50.6039V49.4303C99.7635 49.2666 99.7635 49.1848 100.008 49.1848H101.555C101.811 49.195 102.058 49.2806 102.265 49.431C102.473 49.5815 102.632 49.79 102.722 50.0307C102.865 50.3689 102.874 50.7488 102.748 51.0934C102.622 51.4381 102.37 51.7217 102.044 51.8866C101.9 51.9605 101.743 52.0067 101.582 52.023Z" fill="#264ECA"/>
<path d="M149.307 52.4324C148.801 52.1158 148.239 51.9025 147.651 51.8047C147.298 51.8047 146.945 51.6682 146.619 51.559C146.421 51.5106 146.23 51.4372 146.05 51.3407C145.928 51.2647 145.824 51.1634 145.744 51.0435C145.665 50.9237 145.611 50.7882 145.588 50.646C145.565 50.5039 145.573 50.3583 145.61 50.2192C145.648 50.0802 145.713 49.9508 145.805 49.8397C146 49.599 146.253 49.4113 146.538 49.2939C146.976 49.1979 147.43 49.1979 147.868 49.2939C148.137 49.3056 148.398 49.3751 148.637 49.4975C148.876 49.62 149.086 49.7925 149.253 50.0035C149.47 50.2764 149.47 50.2764 149.768 50.1673C149.802 50.1638 149.833 50.1517 149.86 50.1322C149.887 50.1129 149.909 50.0867 149.921 50.0563C149.935 50.0259 149.941 49.9925 149.939 49.9593C149.935 49.9261 149.924 49.8942 149.904 49.8671C149.741 49.522 149.476 49.236 149.144 49.0482C148.58 48.7008 147.933 48.5123 147.271 48.5024C146.853 48.5102 146.439 48.5935 146.05 48.748C145.694 48.8891 145.378 49.1136 145.127 49.4031C144.962 49.6091 144.844 49.8485 144.781 50.1046C144.718 50.3608 144.711 50.6277 144.759 50.8869C144.809 51.1463 144.912 51.3919 145.066 51.6068C145.218 51.8218 145.415 52.001 145.642 52.1322L146.022 52.296C146.412 52.4338 146.811 52.5433 147.217 52.6235C147.588 52.6854 147.952 52.786 148.302 52.9237C148.488 52.987 148.662 53.0791 148.819 53.1966C148.99 53.3311 149.111 53.5212 149.161 53.7349C149.21 53.9486 149.185 54.1729 149.089 54.3701C148.926 54.7141 148.633 54.979 148.276 55.107C147.78 55.3099 147.234 55.3478 146.716 55.2151C146.198 55.0825 145.736 54.7863 145.398 54.3701C145.368 54.3433 145.33 54.3284 145.289 54.3284C145.249 54.3284 145.211 54.3433 145.181 54.3701L144.828 54.5066C144.828 54.5066 144.665 54.643 144.828 54.7522C144.946 55.0164 145.122 55.2499 145.343 55.4345C145.795 55.7974 146.334 56.0341 146.907 56.1203C147.479 56.2066 148.063 56.1394 148.601 55.9257C148.942 55.7941 149.254 55.5997 149.524 55.3526C149.749 55.1724 149.925 54.9401 150.04 54.6756C150.154 54.4111 150.203 54.1225 150.182 53.835C150.16 53.5473 150.07 53.2692 149.917 53.0248C149.765 52.7804 149.555 52.5771 149.307 52.4324Z" fill="#264ECA"/>
<path d="M120.286 50.8233L119.444 48.7491C119.419 48.6603 119.366 48.5824 119.293 48.5279C119.219 48.4735 119.128 48.4456 119.037 48.4489C118.33 48.4489 118.412 48.4489 118.141 49.0767V49.295C117.489 51.1507 116.811 53.0066 116.132 54.7532C116.048 54.9674 115.975 55.186 115.915 55.4083C115.915 55.6266 115.915 55.6811 116.078 55.7085H116.404C116.471 55.711 116.536 55.6909 116.591 55.6513C116.645 55.6116 116.684 55.5549 116.702 55.4901L117.109 54.4258C117.123 54.3438 117.167 54.2699 117.232 54.2192C117.298 54.1686 117.38 54.1448 117.463 54.1528C118.412 54.1528 119.389 54.1528 120.367 54.1528C120.463 54.1449 120.56 54.1744 120.635 54.2353C120.711 54.2962 120.761 54.3839 120.774 54.4803L121.019 55.1899L121.181 55.5447C121.194 55.5854 121.218 55.621 121.253 55.6457C121.287 55.6704 121.329 55.683 121.371 55.6811C121.575 55.7368 121.791 55.7368 121.996 55.6811C122.034 55.5566 122.034 55.4236 121.996 55.2991C121.399 53.8799 120.855 52.3516 120.286 50.8233ZM117.571 53.5524C117.571 53.5524 117.571 53.5524 117.571 53.3613C118.032 52.1333 118.466 50.9324 118.929 49.6497C119.139 50.0826 119.32 50.5294 119.471 50.9871C119.607 51.3964 119.77 51.833 119.932 52.2424C120.106 52.6783 120.251 53.1251 120.367 53.5797C119.433 53.6034 118.499 53.5577 117.571 53.4432V53.5524Z" fill="#264ECA"/>
<path d="M91.7556 55.161L89.5837 48.8839C89.594 48.8023 89.594 48.7198 89.5837 48.6383C89.5698 48.5963 89.5447 48.5589 89.5113 48.5301C89.4777 48.5013 89.4372 48.482 89.3937 48.4745C89.1494 48.4745 88.878 48.4745 88.6608 48.4745C88.4437 48.4745 88.4708 48.8021 88.3894 48.993C87.6564 51.0127 86.9505 53.0049 86.2176 54.9972C86.2176 55.2155 86.0818 55.4338 86.0005 55.6795C86.1976 55.7178 86.4004 55.7178 86.5977 55.6795C86.6519 55.6731 86.7033 55.652 86.7464 55.6182C86.7894 55.5846 86.8225 55.5397 86.842 55.4884V55.2429L87.0863 54.5878C87.2492 54.1238 87.2492 54.1238 87.6835 54.1238H90.3982C90.4641 54.1255 90.5279 54.1473 90.5813 54.1864C90.6345 54.2254 90.6748 54.2797 90.6969 54.3422C90.6969 54.4786 90.6968 54.6424 90.8326 54.7789C90.9683 54.9153 91.0226 55.2701 91.1041 55.4884C91.1235 55.5397 91.1565 55.5846 91.1996 55.6182C91.2427 55.652 91.2941 55.6731 91.3484 55.6795C91.8641 55.6795 92.027 55.6795 91.7826 55.1337C91.7826 55.2429 91.7556 55.1882 91.7556 55.161ZM90.1267 53.4961H87.6564C87.4392 53.4961 87.412 53.4961 87.4664 53.2506C87.527 53.0463 87.5995 52.8458 87.6835 52.6501C88.0365 51.6131 88.4165 50.6032 88.8237 49.4843C89.0058 49.7709 89.1431 50.0839 89.2309 50.4123L90.181 53.1414V53.4142C90.1737 53.4474 90.1544 53.4766 90.1267 53.4961Z" fill="#264ECA"/>
<path d="M201.699 55.1899C201.047 53.3887 200.396 51.6148 199.771 49.7317L199.365 48.6127C199.358 48.5765 199.344 48.5421 199.324 48.5113C199.304 48.4806 199.278 48.4542 199.247 48.4339C199.217 48.4134 199.183 48.3994 199.147 48.3927C199.111 48.3858 199.074 48.3864 199.039 48.3944H198.821C198.821 48.3944 198.821 48.3944 198.658 48.3944C198.61 48.3825 198.559 48.381 198.511 48.3899C198.461 48.3989 198.415 48.4182 198.375 48.4466C198.333 48.4749 198.299 48.5117 198.272 48.5544C198.247 48.5972 198.231 48.645 198.224 48.6946C198.224 48.6946 198.224 48.6946 198.224 48.8583L195.917 55.2446C195.727 55.7358 195.753 55.7631 196.242 55.7631C196.731 55.7631 196.596 55.7631 196.65 55.4901C196.704 55.2173 196.894 54.8625 197.002 54.535C197.016 54.4385 197.066 54.3508 197.142 54.29C197.217 54.2291 197.314 54.1995 197.409 54.2075C198.351 54.2075 199.255 54.2075 200.124 54.2075C200.224 54.1964 200.325 54.2202 200.409 54.2748C200.493 54.3296 200.555 54.4118 200.586 54.5077C200.586 54.8625 200.83 55.1899 200.939 55.5175C200.957 55.5895 201 55.6531 201.059 55.6978C201.118 55.7424 201.191 55.7654 201.265 55.7631H201.481C201.753 55.7631 201.808 55.7631 201.726 55.4356C201.645 55.1081 201.726 55.2991 201.699 55.1899ZM200.152 53.5252H197.437C197.437 53.5252 197.437 53.3888 197.437 53.3342L198.74 49.7317C199.255 50.9167 199.708 52.1283 200.098 53.3614C200.131 53.4096 200.149 53.4664 200.152 53.5252Z" fill="#264ECA"/>
<path d="M215.869 49.266H219.154C219.209 49.079 219.209 48.88 219.154 48.6929H218.828C217.67 48.6929 216.503 48.6929 215.326 48.6929C215.255 48.6795 215.181 48.6795 215.11 48.6929C214.946 48.6929 214.892 48.6929 214.865 48.9113V55.7341C214.865 55.9798 214.865 56.007 215.19 56.0343H219.128C219.17 56.0343 219.212 56.0171 219.242 55.9864C219.273 55.9556 219.29 55.914 219.29 55.8706V55.4885C219.295 55.4659 219.295 55.4424 219.288 55.4202C219.282 55.3979 219.27 55.3776 219.253 55.3612C219.237 55.3448 219.217 55.3328 219.196 55.3264C219.172 55.3201 219.149 55.3195 219.128 55.3247H215.897C215.652 55.3247 215.625 55.3247 215.625 55.0245V52.9232C215.625 52.6229 215.625 52.5956 215.978 52.5683H218.285C218.665 52.5683 218.72 52.5683 218.72 52.1317C218.72 51.6949 218.72 51.7768 218.367 51.7768H217.987C217.336 51.7768 216.657 51.7768 216.005 51.7768C215.354 51.7768 215.625 51.7768 215.625 51.4221V49.8119C215.553 49.7793 215.497 49.7194 215.469 49.6451C215.441 49.5709 215.444 49.4885 215.476 49.4161C215.508 49.3437 215.568 49.2873 215.642 49.2592C215.716 49.231 215.797 49.2334 215.869 49.266Z" fill="#264ECA"/>
<path d="M110.677 49.3215C111.137 49.1164 111.649 49.0592 112.143 49.1577C112.711 49.2747 113.231 49.5599 113.636 49.9764C113.88 50.2221 113.935 50.2221 114.233 49.9764C114.423 49.9764 114.45 49.7581 114.233 49.6217C113.837 49.1194 113.31 48.7367 112.712 48.5153C112.113 48.2938 111.466 48.2422 110.84 48.3662C110.387 48.4435 109.956 48.6143 109.573 48.868C109.19 49.1217 108.863 49.4527 108.614 49.84C108.279 50.3019 108.051 50.8335 107.948 51.3956C107.845 51.9577 107.868 52.5358 108.017 53.0877C108.142 53.6534 108.399 54.181 108.768 54.627C109.136 55.0731 109.604 55.4247 110.134 55.6531C110.633 55.8902 111.185 55.9937 111.736 55.9533C112.605 55.8899 113.419 55.5002 114.016 54.8616C114.423 54.4249 114.423 54.3976 114.016 54.1247C113.969 54.0893 113.912 54.0702 113.853 54.0702C113.794 54.0702 113.737 54.0893 113.69 54.1247C113.611 54.1905 113.538 54.2635 113.473 54.3431C113.003 54.7821 112.393 55.0395 111.752 55.0694C111.111 55.0994 110.48 54.9 109.971 54.5068C109.588 54.2408 109.279 53.88 109.075 53.4595C108.871 53.0389 108.777 52.5725 108.804 52.1051C108.801 51.5054 108.978 50.9187 109.312 50.4219C109.646 49.9251 110.122 49.5415 110.677 49.3215Z" fill="#264ECA"/>
<path d="M168.579 54.1785L168.389 54.3695C168.132 54.634 167.823 54.843 167.482 54.9837C167.141 55.1246 166.776 55.194 166.407 55.1882C165.993 55.1768 165.587 55.0699 165.22 54.876C164.853 54.6819 164.535 54.4061 164.29 54.0693C163.904 53.5336 163.696 52.8889 163.696 52.2271C163.696 51.5655 163.904 50.9207 164.29 50.3849C164.65 49.8148 165.206 49.3988 165.853 49.2173C166.5 49.0358 167.191 49.1018 167.792 49.4025C168.106 49.5621 168.39 49.7744 168.633 50.0302C168.797 50.2212 168.851 50.194 169.068 50.0302H169.312C169.312 50.0302 169.448 49.8664 169.312 49.7572C168.99 49.3396 168.579 49.0002 168.11 48.7639C167.64 48.5278 167.123 48.4009 166.597 48.3927C166.082 48.3744 165.568 48.4757 165.098 48.6887C164.627 48.9016 164.212 49.2205 163.882 49.6208C163.539 50.021 163.279 50.4863 163.117 50.9892C162.956 51.4921 162.896 52.0226 162.941 52.5491C162.987 53.0758 163.137 53.5878 163.382 54.0552C163.628 54.5225 163.964 54.9356 164.372 55.2701C165.021 55.8025 165.842 56.0746 166.679 56.0344C167.421 56.005 168.135 55.7372 168.715 55.2701C168.987 55.0608 169.217 54.8015 169.394 54.5059C169.241 54.3759 169.067 54.2742 168.878 54.2058C168.863 54.1814 168.842 54.1608 168.816 54.1458C168.792 54.1307 168.763 54.1214 168.736 54.1188C168.707 54.1162 168.677 54.1201 168.651 54.1306C168.623 54.1409 168.599 54.1572 168.579 54.1785Z" fill="#264ECA"/>
<path d="M195.021 48.8571H194.804C194.752 48.8579 194.701 48.8738 194.658 48.9028C194.615 48.9319 194.58 48.9728 194.56 49.0207C194.545 49.1203 194.545 49.2215 194.56 49.3209C194.071 50.6309 193.609 51.9137 193.148 53.2236C192.93 53.8241 192.686 54.4245 192.469 55.0795C192.329 54.949 192.234 54.7769 192.197 54.5883C191.682 53.1691 191.166 51.859 190.678 50.3581C190.515 49.9486 190.379 49.512 190.216 49.1026C190.21 49.0481 190.189 48.9965 190.156 48.9531C190.122 48.9098 190.077 48.8765 190.027 48.8571H189.483V49.0207" stroke="#264ECA" stroke-width="0.3"/>
<path d="M97.7279 48.6654C97.7213 48.6124 97.6956 48.5637 97.6555 48.5284C97.6155 48.4932 97.564 48.474 97.5107 48.4744H93.656C93.4659 48.4744 93.4388 48.4744 93.4116 48.7473V55.2154C93.3981 55.3606 93.3981 55.5069 93.4116 55.6521C93.394 55.6757 93.3845 55.7044 93.3845 55.734C93.3845 55.7635 93.394 55.7922 93.4116 55.8158C93.5794 55.8701 93.7597 55.8701 93.9274 55.8158C93.9657 55.8093 94.0005 55.7892 94.0254 55.7592C94.0503 55.7291 94.0637 55.6912 94.0631 55.6521V52.923C94.0497 52.7868 94.0497 52.6497 94.0631 52.5136C94.0631 52.3498 94.0631 52.2952 94.3075 52.2679H96.6149C97.0492 52.2679 97.1035 52.2679 97.0764 51.7767C97.0492 51.2854 97.0764 51.4765 96.7507 51.4765C96.4249 51.4765 95.6105 51.4765 95.0405 51.4765H94.3346C94.1175 51.4765 94.0631 51.4765 94.0631 51.1762C94.0631 50.876 94.0631 50.3303 94.0631 49.8935C94.0496 49.7666 94.0496 49.6384 94.0631 49.5115C94.0631 49.3477 94.0631 49.2931 94.2803 49.2658H96.995C97.565 49.2658 97.5107 49.2658 97.5107 48.7201L97.7279 48.6654Z" fill="#264ECA"/>
<path d="M225.671 48.4749C225.599 48.4626 225.526 48.4748 225.462 48.5093C225.398 48.544 225.348 48.5991 225.318 48.6659C225.239 48.7453 225.176 48.8376 225.128 48.9388L223.716 51.2859C223.716 51.2859 223.716 51.5042 223.445 51.5315L222.522 50.0032L221.762 48.7751C221.762 48.7751 221.626 48.584 221.517 48.584C221.409 48.584 221.056 48.584 220.839 48.584C220.622 48.584 221.001 48.9388 221.083 49.1298V49.2663L222.957 52.2957C223.008 52.4553 223.008 52.6273 222.957 52.7869V55.5161C222.957 55.7071 222.957 55.7617 223.227 55.789C223.499 55.8163 223.77 55.789 223.77 55.2431V52.8687C223.766 52.6016 223.831 52.3378 223.96 52.1046L225.996 49.1298C225.996 48.9661 226.295 48.8023 226.214 48.6659C226.132 48.5294 225.862 48.5021 225.671 48.4749Z" fill="#264ECA"/>
<path d="M131.661 48.4487C130.086 48.4487 128.512 48.4487 126.938 48.4487C126.448 48.4487 126.313 48.6398 126.448 49.131C126.584 49.6223 126.448 49.131 126.584 49.2675H128.674C128.81 49.2675 128.892 49.2675 128.892 49.4858V55.1897C128.877 55.335 128.877 55.4812 128.892 55.6265V55.7629C128.987 55.8034 129.088 55.8244 129.191 55.8244C129.293 55.8244 129.395 55.8034 129.489 55.7629V49.7587C129.489 49.4312 129.489 49.3766 129.869 49.3766H131.688C131.932 49.3766 131.986 49.3766 131.986 49.1038C131.986 48.8308 132.15 48.4487 131.661 48.4487Z" fill="#264ECA"/>
<path d="M212.993 55.0524H210.522C209.871 55.0524 209.898 55.0524 209.898 54.4247V48.9665C209.898 48.4478 209.898 48.4478 209.355 48.4752C208.812 48.5025 209.137 48.4752 209.111 48.6935V55.6256C209.111 55.6256 209.111 55.7892 209.328 55.8166H212.83C213.21 55.8166 213.237 55.8166 213.237 55.3799C213.237 55.107 213.183 55.0797 212.993 55.0524Z" fill="#264ECA"/>
<path d="M207.345 55.0799H204.821C204.17 55.0799 204.196 55.0799 204.196 54.4795V48.7757C204.196 48.7757 204.196 48.53 204.196 48.5027C204.097 48.4614 203.991 48.4402 203.884 48.4402C203.777 48.4402 203.671 48.4614 203.572 48.5027V55.4894C203.567 55.5155 203.569 55.5424 203.576 55.5678C203.584 55.5933 203.598 55.6164 203.617 55.6352C203.636 55.654 203.659 55.6679 203.685 55.6758C203.709 55.6837 203.737 55.6853 203.762 55.6803H207.536C207.583 55.5924 207.608 55.4939 207.608 55.3938C207.608 55.2937 207.583 55.1952 207.536 55.1073C207.536 55.1073 207.373 55.0799 207.345 55.0799Z" fill="#264ECA"/>
<path d="M158.483 55.0799H155.958C155.306 55.0799 155.334 55.0799 155.334 54.4795V48.7757C155.334 48.7757 155.334 48.53 155.334 48.5027C155.235 48.4614 155.129 48.4402 155.022 48.4402C154.914 48.4402 154.808 48.4614 154.709 48.5027V55.4894C154.705 55.5155 154.706 55.5424 154.714 55.5678C154.722 55.5933 154.736 55.6164 154.754 55.6352C154.773 55.654 154.796 55.6679 154.821 55.6758C154.846 55.6837 154.873 55.6853 154.899 55.6803H158.673C158.72 55.5924 158.746 55.4939 158.746 55.3938C158.746 55.2937 158.72 55.1952 158.673 55.1073C158.673 55.1073 158.509 55.0799 158.483 55.0799Z" fill="#264ECA"/>
<path d="M152.237 48.4487C152.021 48.4487 151.993 48.4487 151.967 48.6944V55.1897C151.953 55.3259 151.953 55.463 151.967 55.5991V55.7356C152.061 55.7761 152.163 55.797 152.265 55.797C152.368 55.797 152.469 55.7761 152.564 55.7356C152.564 55.7356 152.564 55.7356 152.564 55.5991C152.576 55.5178 152.576 55.4348 152.564 55.3535V48.8854C152.672 48.476 152.645 48.4487 152.237 48.4487Z" fill="#264ECA"/>
<path d="M161.197 48.7202C161.197 48.5291 161.197 48.4745 160.925 48.4745C160.654 48.4745 160.436 48.4745 160.436 48.9385V55.3246C160.421 55.4242 160.421 55.5254 160.436 55.6248V55.7614C160.531 55.8019 160.632 55.8227 160.734 55.8227C160.838 55.8227 160.94 55.8019 161.034 55.7614C161.034 55.7614 161.034 55.7614 161.034 55.6248C161.047 55.4888 161.047 55.3517 161.034 55.2155V48.7202H161.197Z" fill="#264ECA"/>
<path d="M105.872 48.4487C105.709 48.4487 105.655 48.4487 105.655 48.667V55.3535C105.655 55.7629 105.655 55.7901 106.062 55.7901C106.127 55.7901 106.189 55.7643 106.234 55.7182C106.28 55.6722 106.306 55.6096 106.306 55.5446V48.8854C106.415 48.476 106.36 48.4487 105.872 48.4487Z" fill="#264ECA"/>
<path d="M184.074 48.4634C184.021 48.47 183.973 48.496 183.938 48.5362C183.902 48.5765 183.884 48.6282 183.884 48.6817C183.87 48.8268 183.87 48.9731 183.884 49.1183V54.1946L183.531 53.9217C182.527 52.4479 181.522 50.8923 180.545 49.3367L180.084 48.6543C179.816 48.4861 179.499 48.4184 179.187 48.4634C179.162 48.6535 179.162 48.8463 179.187 49.0364V55.5864C179.187 55.7502 179.187 55.8048 179.432 55.8048C179.676 55.8048 179.948 55.8048 179.948 55.3136V50.2373L181.143 52.0385L183.395 55.5864C183.445 55.6722 183.516 55.7429 183.602 55.791C183.688 55.839 183.786 55.8627 183.884 55.8593C184.617 55.8321 184.617 55.8321 184.617 55.3136V48.9545C184.617 48.4634 184.617 48.4634 184.074 48.4634Z" fill="#264ECA"/>
</g>
<defs>
<clipPath id="clip0_1599_2302">
<rect width="227" height="58" fill="white"/>
</clipPath>
</defs>
</svg>
